<svg id="visual" viewBox="0 0 900 300" width="900" height="300" xmlns="http://www.w3.org/2000/svg" xmlns:xlink="http://www.w3.org/1999/xlink" version="1.1"><rect x="0" y="0" width="900" height="300" fill="#060630"></rect><path d="M0 127L11.5 132C23 137 46 147 69 153C92 159 115 161 138.2 157.3C161.3 153.7 184.7 144.3 207.8 139.5C231 134.7 254 134.3 277 137.2C300 140 323 146 346 153.3C369 160.7 392 169.3 415.2 170.3C438.3 171.3 461.7 164.7 484.8 163.3C508 162 531 166 554 164.7C577 163.3 600 156.7 623 149C646 141.3 669 132.7 692.2 128.5C715.3 124.3 738.7 124.7 761.8 127C785 129.3 808 133.7 831 139.3C854 145 877 152 888.5 155.5L900 159L900 0L888.5 0C877 0 854 0 831 0C808 0 785 0 761.8 0C738.7 0 715.3 0 692.2 0C669 0 646 0 623 0C600 0 577 0 554 0C531 0 508 0 484.8 0C461.7 0 438.3 0 415.2 0C392 0 369 0 346 0C323 0 300 0 277 0C254 0 231 0 207.8 0C184.7 0 161.3 0 138.2 0C115 0 92 0 69 0C46 0 23 0 11.5 0L0 0Z" fill="#060630"></path><path d="M0 146L11.5 144.7C23 143.3 46 140.7 69 136.2C92 131.7 115 125.3 138.2 121.3C161.3 117.3 184.7 115.7 207.8 121C231 126.3 254 138.7 277 145.7C300 152.7 323 154.3 346 155.2C369 156 392 156 415.2 151C438.3 146 461.7 136 484.8 128.3C508 120.7 531 115.3 554 119.8C577 124.3 600 138.7 623 140.5C646 142.3 669 131.7 692.2 130.2C715.3 128.7 738.7 136.3 761.8 142.2C785 148 808 152 831 152.7C854 153.3 877 150.7 888.5 149.3L900 148L900 0L888.5 0C877 0 854 0 831 0C808 0 785 0 761.8 0C738.7 0 715.3 0 692.2 0C669 0 646 0 623 0C600 0 577 0 554 0C531 0 508 0 484.8 0C461.7 0 438.3 0 415.2 0C392 0 369 0 346 0C323 0 300 0 277 0C254 0 231 0 207.8 0C184.7 0 161.3 0 138.2 0C115 0 92 0 69 0C46 0 23 0 11.5 0L0 0Z" fill="#211242"></path><path d="M0 126L11.5 123.8C23 121.7 46 117.3 69 116.2C92 115 115 117 138.2 119.7C161.3 122.3 184.7 125.7 207.8 123.3C231 121 254 113 277 111.2C300 109.3 323 113.7 346 114.8C369 116 392 114 415.2 112C438.3 110 461.7 108 484.8 110.8C508 113.7 531 121.3 554 123.7C577 126 600 123 623 119.7C646 116.3 669 112.7 692.2 111.5C715.3 110.3 738.7 111.7 761.8 108.5C785 105.3 808 97.7 831 96C854 94.3 877 98.7 888.5 100.8L900 103L900 0L888.5 0C877 0 854 0 831 0C808 0 785 0 761.8 0C738.7 0 715.3 0 692.2 0C669 0 646 0 623 0C600 0 577 0 554 0C531 0 508 0 484.8 0C461.7 0 438.3 0 415.2 0C392 0 369 0 346 0C323 0 300 0 277 0C254 0 231 0 207.8 0C184.7 0 161.3 0 138.2 0C115 0 92 0 69 0C46 0 23 0 11.5 0L0 0Z" fill="#401752"></path><path d="M0 70L11.5 76C23 82 46 94 69 93.7C92 93.3 115 80.7 138.2 80.5C161.3 80.3 184.7 92.7 207.8 92.7C231 92.7 254 80.3 277 80C300 79.7 323 91.3 346 97.2C369 103 392 103 415.2 100.5C438.3 98 461.7 93 484.8 93.5C508 94 531 100 554 97.7C577 95.3 600 84.7 623 83.3C646 82 669 90 692.2 93C715.3 96 738.7 94 761.8 93.3C785 92.7 808 93.3 831 89.8C854 86.3 877 78.7 888.5 74.8L900 71L900 0L888.5 0C877 0 854 0 831 0C808 0 785 0 761.8 0C738.7 0 715.3 0 692.2 0C669 0 646 0 623 0C600 0 577 0 554 0C531 0 508 0 484.8 0C461.7 0 438.3 0 415.2 0C392 0 369 0 346 0C323 0 300 0 277 0C254 0 231 0 207.8 0C184.7 0 161.3 0 138.2 0C115 0 92 0 69 0C46 0 23 0 11.5 0L0 0Z" fill="#611a5e"></path><path d="M0 61L11.5 62.2C23 63.3 46 65.7 69 66.8C92 68 115 68 138.2 68.3C161.3 68.7 184.7 69.3 207.8 70.7C231 72 254 74 277 75.2C300 76.3 323 76.7 346 73.3C369 70 392 63 415.2 62.7C438.3 62.3 461.7 68.7 484.8 73.2C508 77.7 531 80.3 554 80.2C577 80 600 77 623 76.5C646 76 669 78 692.2 74C715.3 70 738.7 60 761.8 57C785 54 808 58 831 58C854 58 877 54 888.5 52L900 50L900 0L888.5 0C877 0 854 0 831 0C808 0 785 0 761.8 0C738.7 0 715.3 0 692.2 0C669 0 646 0 623 0C600 0 577 0 554 0C531 0 508 0 484.8 0C461.7 0 438.3 0 415.2 0C392 0 369 0 346 0C323 0 300 0 277 0C254 0 231 0 207.8 0C184.7 0 161.3 0 138.2 0C115 0 92 0 69 0C46 0 23 0 11.5 0L0 0Z" fill="#831b66"></path><path d="M0 40L11.5 41.8C23 43.7 46 47.3 69 50.5C92 53.7 115 56.3 138.2 55.7C161.3 55 184.7 51 207.8 47.3C231 43.7 254 40.3 277 37.8C300 35.3 323 33.7 346 32.7C369 31.7 392 31.3 415.2 31.7C438.3 32 461.7 33 484.8 35C508 37 531 40 554 43.8C577 47.7 600 52.3 623 53.8C646 55.3 669 53.7 692.2 53.2C715.3 52.7 738.7 53.3 761.8 54.7C785 56 808 58 831 55.7C854 53.3 877 46.7 888.5 43.3L900 40L900 0L888.5 0C877 0 854 0 831 0C808 0 785 0 761.8 0C738.7 0 715.3 0 692.2 0C669 0 646 0 623 0C600 0 577 0 554 0C531 0 508 0 484.8 0C461.7 0 438.3 0 415.2 0C392 0 369 0 346 0C323 0 300 0 277 0C254 0 231 0 207.8 0C184.7 0 161.3 0 138.2 0C115 0 92 0 69 0C46 0 23 0 11.5 0L0 0Z" fill="#a51d69"></path><path d="M0 34L11.5 33C23 32 46 30 69 30.5C92 31 115 34 138.2 32.7C161.3 31.3 184.7 25.7 207.8 23.5C231 21.3 254 22.7 277 24.8C300 27 323 30 346 30.5C369 31 392 29 415.2 26.2C438.3 23.3 461.7 19.7 484.8 21.3C508 23 531 30 554 33.5C577 37 600 37 623 36.8C646 36.7 669 36.3 692.2 36C715.3 35.7 738.7 35.3 761.8 33.3C785 31.3 808 27.7 831 26.2C854 24.7 877 25.3 888.5 25.7L900 26L900 0L888.5 0C877 0 854 0 831 0C808 0 785 0 761.8 0C738.7 0 715.3 0 692.2 0C669 0 646 0 623 0C600 0 577 0 554 0C531 0 508 0 484.8 0C461.7 0 438.3 0 415.2 0C392 0 369 0 346 0C323 0 300 0 277 0C254 0 231 0 207.8 0C184.7 0 161.3 0 138.2 0C115 0 92 0 69 0C46 0 23 0 11.5 0L0 0Z" fill="#c62368"></path></svg>